<svg xmlns="http://www.w3.org/2000/svg" width="56" height="24" viewBox="0 0 56 24">
  <path d="M10.0487106,15.09375 L16.0659026,23.625 L9.95845272,23.625 L5.05444126,16.15625 L4.96418338,16.15625 L4.96418338,23.625 L0,23.625 L0,0 L4.96418338,0 L4.96418338,14.375 L5.05444126,14.375 L9.83810888,8.0625 L15.8252149,8.0625 L10.0487106,15.09375 Z M26.034384,17.375 L26.034384,16.84375 L25.4025788,16.84375 C23.2363897,16.84375 20.7994269,17.125 20.7994269,18.96875 C20.7994269,20.15625 21.9426934,20.5625 22.9355301,20.5625 C24.9212034,20.5625 26.034384,19.3125 26.034384,17.375 Z M19.4756447,12.96875 L16.97851,10.1875 C18.7234957,8.46875 21.2206304,7.5625 23.6575931,7.5625 C28.6819484,7.5625 30.5472779,10.125 30.5472779,15.78125 L30.5472779,23.625 L26.034384,23.625 L26.034384,21.96875 L25.9441261,21.96875 C25.1919771,23.25 23.4770774,24 21.7020057,24 C19.3252149,24 16.256447,22.78125 16.256447,19.125 C16.256447,14.625 21.52149,13.875 25.8839542,13.875 L25.8839542,13.625 C25.8839542,12.09375 24.7106017,11.375 23.1762178,11.375 C21.7621777,11.375 20.3782235,12.09375 19.4756447,12.96875 Z M38.7707736,23.625 L33.7765043,23.625 L33.7765043,0 L38.7707736,0 L38.7707736,23.625 Z M47.234957,23.625 L42.2406877,23.625 L42.2406877,0 L47.234957,0 L47.234957,23.625 Z M56,3.09375 C56,4.6875 54.7363897,5.90625 53.1719198,5.90625 C51.5773639,5.90625 50.3438395,4.625 50.3438395,3.09375 C50.3438395,1.59375 51.5773639,0.28125 53.1719198,0.28125 C54.7363897,0.28125 56,1.53125 56,3.09375 Z M55.6389685,23.625 L50.7048711,23.625 L50.7048711,8.0625 L55.6389685,8.0625 L55.6389685,23.625 Z"/>
</svg>
