<svg xmlns="http://www.w3.org/2000/svg" xmlns:xlink="http://www.w3.org/1999/xlink" width="70" height="79" viewBox="0 0 70 79">
  <defs>
    <path id="marker-black-a" d="M10.550429,10.1183302 C24.045788,-3.37702874 45.9627152,-3.36852553 59.449571,10.1183302 C72.94493,23.6136892 72.9364268,45.5306164 59.449571,59.0174722 L44.1859259,74.2811173 C39.1118642,79.3551791 30.8895424,79.3565857 25.8140741,74.2811173 L10.550429,59.0174722 C-2.94492997,45.5221132 -2.93642677,23.605186 10.550429,10.1183302 Z"/>
  </defs>
  <g fill="none" fill-rule="evenodd">
    <use fill="#262628" fill-rule="nonzero" xlink:href="#marker-black-a"/>
    <path fill="#FFF" fill-rule="nonzero" d="M42.336,27.16 L35.28,34.792 L34.992,34.816 L30.888,39.232 L30.648,36.424 L39.192,27.16 L42.336,27.16 Z M31.92,27.16 L31.92,43 L29.352,43 L29.352,27.16 L31.92,27.16 Z M35.808,32.824 L42.48,43 L39.456,43 L33.768,34.264 L35.808,32.824 Z"/>
  </g>
</svg>
